<?xml version="1.0" encoding="utf-8"?>
<!-- Generator: Adobe Illustrator 19.0.0, SVG Export Plug-In . SVG Version: 6.00 Build 0)  -->
<svg version="1.1" id="Layer_1" xmlns="http://www.w3.org/2000/svg" xmlns:xlink="http://www.w3.org/1999/xlink" x="0px" y="0px"
	 viewBox="0 0 15 15" style="enable-background:new 0 0 15 15;" xml:space="preserve">
<style type="text/css">
	.st0{fill:#FFFFFF;}
</style>
<g id="XMLID_2_">
	<path id="XMLID_5_" class="st0" d="M14.8,14.8L14.8,14.8L14.8,14.8l0-5.4c0-2.6-0.6-4.6-3.6-4.6c-1.5,0-2.5,0.8-2.9,1.6h0V5H5.3
		v9.7h3V10c0-1.3,0.2-2.5,1.8-2.5c1.5,0,1.6,1.4,1.6,2.6v4.7L14.8,14.8z"/>
	<path id="XMLID_4_" class="st0" d="M0.4,5h3v9.7h-3L0.4,5z"/>
	<path id="XMLID_3_" class="st0" d="M1.9,0.2C1,0.2,0.2,1,0.2,1.9S1,3.7,1.9,3.7s1.8-0.8,1.8-1.8C3.7,1,2.9,0.2,1.9,0.2z"/>
</g>
</svg>
