<svg xmlns="http://www.w3.org/2000/svg" width="16.158" height="11.354" viewBox="0 0 16.158 11.354"><path d="M17.146,8.26h0a6.239,6.239,0,0,0-.668-3.031h0a2.143,2.143,0,0,0-1.262-.734h0a57.517,57.517,0,0,0-6.144-.228h0a57.583,57.583,0,0,0-6.122.22h0a2.107,2.107,0,0,0-1.072.543,3.787,3.787,0,0,0-.807,2.532h0a35.444,35.444,0,0,0,0,4.756h0a7.01,7.01,0,0,0,.22,1.468h0a2.3,2.3,0,0,0,.521,1h0a2.1,2.1,0,0,0,1.094.573h0a33.163,33.163,0,0,0,4.771.242c2.569.037,4.822,0,7.487-.206h0a2.114,2.114,0,0,0,1.123-.573h0a1.828,1.828,0,0,0,.448-.734h0a7.766,7.766,0,0,0,.382-2.5c.029-.411.029-2.892.029-3.332ZM7.413,12.033V7.489l4.345,2.283C10.54,10.447,8.932,11.21,7.413,12.033Z" transform="translate(-0.991 -4.258)" fill="#fff"/></svg>